<?xml version="1.0" standalone="no"?>
<!DOCTYPE svg PUBLIC "-//W3C//DTD SVG 20010904//EN"
 "http://www.w3.org/TR/2001/REC-SVG-20010904/DTD/svg10.dtd">
<svg version="1.0" xmlns="http://www.w3.org/2000/svg"
 width="500.000000pt" height="500.000000pt" viewBox="0 0 500.000000 500.000000"
 preserveAspectRatio="xMidYMid meet">

<g transform="translate(0.000000,500.000000) scale(0.100000,-0.100000)"
fill="#000000" stroke="none">
<path d="M2947 2952 l-107 -108 -17 -279 c-9 -154 -18 -282 -20 -285 -2 -2
-61 53 -131 123 l-127 127 -191 -191 -191 -190 -12 -200 c-7 -111 -11 -202 -9
-203 2 -2 210 10 463 25 253 15 473 28 490 28 28 1 23 8 -100 131 l-130 130
298 298 297 297 -203 203 -202 202 -108 -108z"/>
</g>
</svg>
