<?xml version="1.0" standalone="no"?>
<!DOCTYPE svg PUBLIC "-//W3C//DTD SVG 20010904//EN"
 "http://www.w3.org/TR/2001/REC-SVG-20010904/DTD/svg10.dtd">
<svg version="1.0" xmlns="http://www.w3.org/2000/svg"
 width="500.000000pt" height="500.000000pt" viewBox="0 0 500.000000 500.000000"
 preserveAspectRatio="xMidYMid meet">

<g transform="translate(0.000000,500.000000) scale(0.100000,-0.100000)"
fill="#000000" stroke="none">
<path d="M2758 2763 l-66 -68 -11 -179 c-6 -99 -13 -181 -14 -182 -2 -2 -40
33 -86 77 l-82 80 -124 -124 -123 -124 -7 -133 -8 -133 79 6 c44 4 185 12 314
18 129 7 236 13 238 14 1 1 -24 29 -55 62 -32 33 -68 72 -81 86 l-24 25 191
193 191 194 -128 128 c-70 70 -129 127 -132 127 -3 0 -35 -30 -72 -67z"/>
</g>
</svg>
